<svg xmlns="http://www.w3.org/2000/svg" viewBox="0 0 512 512">
  <rect width="512" height="512" rx="100" fill="#1B2C4E"/>
  <circle cx="256" cy="220" r="120" fill="#F9F8F1" opacity="0.2"/>
  <path d="M256 80c-77.3 0-140 62.7-140 140 0 47.4 23.5 89.2 59.4 114.7 10.6 7.5 17 19.8 17 32.8v32.5c0 11 9 20 20 20h87.2c11 0 20-9 20-20v-32.5c0-13 6.4-25.3 17-32.8 35.9-25.5 59.4-67.3 59.4-114.7 0-77.3-62.7-140-140-140z" fill="#FFF9E6"/>
  <path d="M208 448h96v16c0 11-9 20-20 20h-56c-11 0-20-9-20-20v-16z" fill="#E6E5D3"/>
  <path d="M256 120v40M336 153l-28 28M176 153l28 28M370 220h-40M142 220h40" stroke="#F1C40F" stroke-width="20" stroke-linecap="round"/>
</svg>
